<svg width="50" height="50" viewBox="0 0 83 82" fill="none" xmlns="http://www.w3.org/2000/svg">
                                <path fill-rule="evenodd" clip-rule="evenodd" d="M75.6125 13.3938L41.6184 1.49585L7.62422 13.3938V40.7931C7.62422 54.8224 16.2383 64.6297 24.2677 70.7181C27.7377 73.3202 31.4486 75.5844 35.3498 77.4795C36.8953 78.2323 38.4717 78.9196 40.075 79.5396L40.3708 79.6484L40.4557 79.6824L40.4795 79.6891L40.4931 79.6959L41.6184 80.0903L42.7436 79.6959L42.3514 78.5774C42.7436 79.6926 42.747 79.6926 42.747 79.6926L42.7572 79.6891L42.7809 79.6824L42.8659 79.6518L43.1617 79.5396C48.8057 77.3281 54.1234 74.3605 58.969 70.7181C67.0018 64.6297 75.6125 54.8224 75.6125 40.7931V13.3938ZM42.3514 78.5774C42.1859 78.107 41.9512 77.438 41.6184 76.4869L42.3514 78.5774ZM63.0832 28.6029L39.046 52.6402L24.6223 38.2199L29.4324 33.4097L39.0426 43.0266L58.2731 23.7961L63.0832 28.6029Z" fill="black"></path>
                                </svg>