<svg width="50" height="50" viewBox="0 0 83 82" fill="none" xmlns="http://www.w3.org/2000/svg">
                                <path d="M12.3097 37.6881C12.137 35.7018 13.7027 33.9941 15.6964 33.9941H22.1868C24.0642 33.9941 25.5862 35.5161 25.5862 37.3936V69.688C25.5862 71.5655 24.0642 73.0874 22.1868 73.0874H18.5046C16.7413 73.0874 15.2707 71.7392 15.1179 69.9825L12.3097 37.6881Z" fill="black"></path>
                                <path d="M31.2372 36.3304C31.2372 34.9099 32.12 33.6386 33.4048 33.0329C36.2068 31.7121 40.9814 29.0544 43.1351 25.4625C45.9109 20.8331 46.4344 12.469 46.5196 10.5531C46.5315 10.2849 46.5238 10.0164 46.5607 9.75047C47.0208 6.43247 53.4257 10.3086 55.8829 14.4069C57.2165 16.6311 57.3875 19.5534 57.2473 21.8349C57.0972 24.2761 56.3815 26.6342 55.6793 28.9771L54.1832 33.9678H72.6368C74.8911 33.9678 76.521 36.1218 75.9082 38.2912L66.7803 70.6119C66.3667 72.0762 65.0304 73.0874 63.5088 73.0874H34.6366C32.7591 73.0874 31.2372 71.5655 31.2372 69.688V36.3304Z" fill="black"></path>
                                </svg>